<svg version="1.1" xmlns="http://www.w3.org/2000/svg" style="display: block;" viewBox="0 0 2048 1546" width="575" height="434" preserveAspectRatio="none">
<path transform="translate(0,0)" fill="rgb(250,8,22)" d="M 1008.83 95.5171 C 1110.12 113.12 1173.08 195.338 1153.58 297.612 C 1149.2 320.614 1142.13 342.616 1136.69 365.36 C 1123.78 421.857 1132.56 470.874 1165.63 518.624 C 1173.64 530.183 1193.11 555.19 1203.09 564.411 C 1173.98 499.971 1145.96 437.899 1172.88 367.16 C 1178.97 351.181 1187.23 339.529 1197.24 325.922 C 1187.74 402.226 1225.77 445.36 1268.98 500.715 C 1336.75 587.526 1314.21 711.352 1226.56 775.164 C 1191.98 800.94 1153.89 817.825 1112.03 829.236 C 1091.38 834.824 1071.64 835.401 1050.97 842.995 C 1060.01 834.909 1069.22 829.204 1078.5 821.624 C 1104.3 800.54 1132.46 772.937 1148.28 743.085 C 1157.44 727.411 1163.74 710.24 1166.91 692.367 C 1173.73 652.652 1165.48 626.406 1145.44 593.348 C 1109.52 539.511 1037.34 509.718 1014.11 440.811 C 998.566 394.713 1007.48 357.053 1028.23 314.626 C 1035.09 300.606 1044.6 286.474 1051.02 272.573 L 1051.6 271.305 C 1066.42 239.611 1068.13 203.347 1056.35 170.399 C 1046.14 142.284 1029.92 116.731 1008.83 95.5171 z"/>
<path transform="translate(0,0)" fill="rgb(252,252,252)" d="M 638.612 1029.25 C 589.058 1044.51 535.257 1087.81 496.837 1122.13 C 494.615 1124.12 490.776 1128.36 488.205 1129.34 C 487.286 1127.64 487.208 1126.54 488.019 1124.23 C 507.219 1069.63 562.85 1021.9 611.156 992.142 C 615.092 989.718 622.341 987.638 626.388 987.682 C 663.2 988.083 716.027 995.395 750.681 1004.74 C 806.045 1019.68 824.237 1052.51 845.922 1101.34 C 849.483 1109.36 853.22 1118.68 857.432 1126.45 C 868.1 1116.07 936.602 1052.3 946.42 1051.28 C 947.096 1053.43 945.16 1057.62 944.311 1060.03 C 942.263 1063.25 936.679 1074.29 935.639 1077.89 C 921.909 1103.31 886.897 1162.05 858.699 1175.58 C 855.422 1177.16 847.766 1175.38 843.15 1172.4 C 823.478 1159.69 800.402 1134.04 788.866 1113.48 C 788.246 1112.38 789.05 1109.84 789.315 1108.53 C 792.199 1105.34 795.31 1098.87 797.446 1094.85 C 793.7 1098.01 790.276 1101.58 786.807 1105.05 C 771.375 1118.01 750.115 1131.93 733.311 1143.23 C 711.525 1157.71 689.887 1172.42 668.398 1187.34 C 686.277 1183.91 710.62 1184.3 732.073 1189.03 C 758.219 1194.79 843.231 1223.27 836.7 1260.2 C 834.888 1270.45 798.958 1293.11 787.438 1300.88 C 738.548 1333.82 688.706 1368.22 651.059 1414.5 C 647.182 1419.26 628.81 1443.81 625.987 1445.41 L 624.984 1444.5 C 624.736 1438.61 628.245 1427.64 630.13 1421.51 C 647.391 1365.43 694 1316.67 738.631 1280.61 C 746.996 1273.86 759.733 1263.57 768.909 1258.87 L 770.283 1258.18 C 748.724 1251.19 706.735 1245.33 684.147 1244.8 C 676.661 1251.83 668.301 1258.9 660.36 1265.37 C 605.27 1310.29 548.42 1353.17 502.235 1407.75 C 497.543 1413.29 493.26 1418.87 488.261 1424.23 C 492.447 1364.09 535.82 1305.61 579.966 1266.88 C 593.608 1254.91 609.423 1244.61 624.38 1234.28 C 614.805 1236.6 589.677 1241.37 580.023 1242.38 C 574.228 1235.42 592.077 1203.54 597.354 1195.42 C 619.595 1161.18 649.04 1131.48 674.796 1099.83 C 684.316 1088.13 694.547 1071.8 704.515 1061.74 C 710.853 1060.58 732.104 1060.79 739.092 1060.77 C 707.42 1047.94 671.633 1037.78 638.612 1029.25 z"/>
<path transform="translate(0,0)" fill="rgb(1,150,47)" d="M 1011.42 843.45 C 1042.67 762.564 1043.76 687.953 982.916 620.062 C 958.886 593.251 931.631 565.536 913.224 534.795 C 875.128 471.176 886.208 387.352 930.655 329.868 C 957.823 293.85 988.083 273.544 1026.03 250.778 C 1022.13 259.93 1015.04 272.991 1010.08 281.697 C 984.163 328.698 967.908 384.906 983.717 437.71 C 997.306 483.099 1031.83 514.498 1067.17 543.466 C 1078.88 553.065 1098.81 571.719 1107.37 584.087 C 1177.2 667.646 1123 762.858 1048.19 818.885 C 1036.35 827.755 1023.53 834.936 1011.42 843.45 z"/>
<path transform="translate(0,0)" fill="rgb(252,252,252)" d="M 1176 1153.28 C 1191.29 1112.78 1259.42 1052.68 1300.56 1038.78 C 1333.67 1027.6 1403.4 1027.45 1439.41 1029.35 C 1471.41 1031.04 1495.69 1064.19 1512.92 1088.88 L 1539.88 1127.22 L 1547.33 1120.12 C 1557.59 1110.4 1623.33 1048.87 1630.75 1049.07 C 1631.5 1051.41 1630.06 1054.33 1629.19 1056.84 C 1626.64 1061.64 1624.38 1066.58 1622.06 1071.49 C 1604.53 1104.57 1584.75 1136.65 1559.14 1164.15 C 1549.6 1174.39 1539.74 1179.46 1526.92 1171.23 C 1512.22 1161.78 1497.14 1148.75 1484.69 1136.41 C 1472.32 1123.22 1468.39 1122.56 1478.13 1105.67 C 1462.1 1120.32 1448.66 1132.56 1432.16 1146.73 C 1419.7 1155.96 1407.4 1165.4 1395.27 1175.06 C 1389.58 1179.57 1382.43 1185.96 1376.5 1189.73 C 1421.22 1189.91 1480.9 1206.84 1515.82 1237.21 C 1526.86 1246.82 1526.75 1262.4 1515.15 1272.12 C 1500.38 1284.51 1483.2 1295.06 1466.81 1305.61 C 1444.13 1320 1421.82 1334.97 1399.91 1350.51 C 1384.7 1361.4 1370.25 1373.3 1356.67 1386.15 C 1348.57 1393.67 1339.89 1402.9 1331.46 1409.67 C 1349.23 1352.32 1383.37 1320.82 1428.06 1282.51 C 1435.2 1276.39 1450.02 1264.24 1457.72 1260.09 C 1440.23 1256.26 1307.7 1223.98 1303.01 1224.77 C 1299.69 1223.91 1299.28 1223.74 1296.5 1221.73 C 1315.03 1176.89 1345.61 1151.28 1374.07 1113.2 C 1379.41 1106.05 1385.41 1095.01 1389.86 1087.08 C 1398.82 1086.38 1407.74 1085.34 1416.62 1083.97 C 1410.1 1082.27 1403.53 1080.76 1396.91 1079.44 C 1380.34 1076.27 1335.17 1071.24 1320.06 1074.72 C 1270.91 1086.05 1215.77 1126.09 1176 1153.28 z"/>
<path transform="translate(0,0)" fill="rgb(250,190,2)" d="M 865.391 404.597 L 866.92 404.977 C 867.674 406.943 863.781 431.138 863.315 435.665 C 859.215 475.454 863.552 515.25 882.58 551.004 C 918.427 618.361 988.733 637.17 1004.52 719.397 C 1012.67 761.885 1005.62 807.955 981.827 844.63 C 977.754 832.099 975.811 826.5 970.171 814.933 C 946.764 766.503 905.059 740.501 864.447 707.995 C 824.408 675.949 798.393 635.378 792.747 583.658 C 790.767 565.526 794.122 551.877 797.582 534.59 C 807.417 485.443 833.641 443.095 865.391 404.597 z"/>
<path transform="translate(0,0)" fill="rgb(252,252,252)" d="M 973.151 987.536 C 990.149 986.509 1012.46 987.323 1029.84 987.292 L 1134.86 986.953 C 1128.56 1005.79 1120.09 1021.5 1114.52 1042.48 C 1104.83 1078.89 1100.8 1110.88 1095.93 1147.99 C 1087.63 1213.65 1082.07 1279.63 1079.28 1345.75 C 1079.16 1360.51 1077.01 1381.16 1075.93 1396.54 C 1060.12 1393.28 1040.1 1396.78 1027 1394.18 C 1022.14 1388.06 1021.61 1348.48 1020.75 1337.76 C 1012.64 1236.76 1009.62 1132.57 983.434 1034.27 C 980.819 1024.46 968.809 996.27 968.325 989.195 C 970.056 987.229 969.619 987.868 973.151 987.536 z M 1046.16 1226.34 C 1044.61 1249.42 1049 1289.18 1049.06 1315.15 L 1048.99 1326.14 L 1051.04 1325.91 L 1051.29 1315.93 C 1051.96 1293.68 1053.92 1269.06 1054 1247.34 C 1054.86 1239.86 1054.46 1230.33 1054.71 1222.56 L 1056.84 1171.31 C 1058.74 1124.36 1061.68 1073.46 1062.4 1026.89 C 1054.13 1026.92 1046.08 1027.12 1037.84 1026.31 C 1039.69 1040.41 1039.21 1063.09 1040.17 1078.26 C 1043.21 1126.63 1042.44 1178.27 1046.16 1226.34 z"/>
<path transform="translate(0,0)" fill="rgb(252,252,252)" fill-opacity="0.0196078" d="M 1046.16 1226.34 C 1049.86 1231.18 1044.48 1232.64 1052.69 1233.38 C 1052.84 1238.44 1052.76 1242.41 1054 1247.34 C 1053.92 1269.06 1051.96 1293.68 1051.29 1315.93 L 1049.06 1315.15 C 1049 1289.18 1044.61 1249.42 1046.16 1226.34 z"/>
<path transform="translate(0,0)" fill="rgb(223,223,224)" d="M 1048.99 1326.14 L 1051.04 1325.91 C 1051.07 1329.8 1051.56 1334.86 1050.03 1338.22 C 1048.53 1334.9 1048.96 1329.96 1048.99 1326.14 z"/>
<path transform="translate(0,0)" fill="rgb(252,252,252)" fill-opacity="0.403922" d="M 1049.06 1315.15 L 1051.29 1315.93 L 1051.04 1325.91 L 1048.99 1326.14 L 1049.06 1315.15 z"/>
<path transform="translate(0,0)" fill="rgb(252,252,252)" d="M 773.155 1462.4 C 808.668 1461.02 852.848 1462.28 888.99 1462.35 L 1099.25 1462.36 L 1254.16 1462.35 C 1274.85 1462.36 1311.66 1461.15 1331.29 1462.75 C 1347.67 1478.51 1364.8 1496.06 1381.74 1510.81 L 1331.5 1511.08 L 914.247 1511.12 C 850.918 1511.04 783.693 1512.31 720.769 1510.84 C 728.777 1501.51 763.535 1466.89 773.155 1462.4 z"/>
<path transform="translate(0,0)" fill="rgb(250,8,22)" d="M 1646.5 724.806 C 1840.89 937.039 1838.63 1246.9 1621.52 1444.22 C 1585.58 1476.89 1535.23 1510.1 1489.67 1527.67 C 1482.93 1522.3 1473.3 1513.63 1467.9 1506.87 C 1492.6 1494.73 1514.79 1484.94 1539.01 1471.18 C 1717.3 1369.86 1808.71 1155.21 1757.13 956.623 C 1747.62 920.022 1733.3 882.235 1716.46 848.136 C 1695.94 805.957 1671.5 765.796 1643.48 728.18 L 1646.5 724.806 z"/>
<path transform="translate(0,0)" fill="rgb(250,190,2)" d="M 451.718 729.274 C 455.076 731.096 454.246 730.045 455.741 733.121 C 439.488 757.05 422.884 780.412 408.462 805.519 C 346.88 912.724 314.715 1036.63 338.197 1159.86 C 360.532 1282.43 430.795 1391.05 533.437 1461.68 C 543.616 1468.65 554.116 1475.13 564.904 1481.11 C 571.737 1484.84 611.663 1503.54 613.46 1506.87 C 611.243 1512.81 599.176 1523.5 593.897 1526.98 C 519.648 1496.99 437.861 1423.75 396.65 1354.99 C 393.829 1351.29 390.276 1345.15 387.77 1341.03 C 338.536 1258.32 314.425 1178.32 312.289 1081.47 C 309.574 958.351 366.724 818.209 451.718 729.274 z"/>
<path transform="translate(0,0)" fill="rgb(252,252,252)" d="M 854.863 851.056 L 1247.28 850.973 C 1242.63 862.536 1236.84 871.581 1230.19 881.989 C 1224.2 891.192 1223.89 897.055 1210.89 896.987 C 1190.47 896.881 1170.04 896.338 1149.62 896.283 L 1037 896.882 L 934.236 896.786 C 916.156 896.79 900.189 897.678 881.977 896.763 C 873.652 885.772 859.698 863.844 854.863 851.056 z"/>
<path transform="translate(0,0)" fill="rgb(252,252,252)" d="M 846.511 1404.45 C 876.767 1403.44 914.467 1404.7 945.47 1404.69 L 1158.57 1404.7 C 1189.29 1404.71 1220.01 1405.62 1250.73 1404.93 C 1262.05 1404.68 1269.74 1403.73 1278.29 1412.3 C 1285.41 1419.45 1292.46 1426.77 1299.7 1433.79 C 1287.55 1433.4 1273.77 1433.75 1261.5 1433.78 L 950.955 1433.79 L 857.28 1433.84 C 846.57 1433.88 815.018 1434.6 805.703 1433.42 L 804.624 1431.89 C 807.893 1425.63 826.185 1409.13 832.637 1405.3 L 846.511 1404.45 z"/>
<path transform="translate(0,0)" fill="rgb(252,252,252)" d="M 896.41 915.118 C 904.692 916.764 920.821 915.639 930.291 915.585 L 999.916 915.286 L 1149.62 915.19 C 1168.32 915.154 1188.29 915.91 1206.79 915.356 C 1202.76 924.084 1194.32 937.335 1189.01 945.521 C 1185.76 949.97 1182.48 954.99 1179.34 959.572 C 1163.96 961.592 1124.23 960.617 1106.3 960.87 C 1062.35 961.557 1018.39 961.483 974.446 960.649 C 957.053 960.379 939.901 960.876 922.515 959.956 C 916.962 952.871 897.081 922.526 896.41 915.118 z"/>
<path transform="translate(0,0)" fill="rgb(252,252,252)" d="M 1294.73 1233.91 C 1317.9 1237.78 1340.95 1242.37 1363.84 1247.65 C 1358.6 1258.84 1345.48 1270.79 1336.42 1279.56 C 1296.51 1318.52 1252.09 1352.59 1204.12 1381.05 C 1187.91 1390.66 1178.32 1397.31 1159.58 1401.11 C 1188.49 1345.16 1234.95 1316.99 1271.51 1267.92 C 1276.4 1261.37 1283.85 1251.99 1287.7 1244.96 C 1290.97 1240.96 1292.25 1238.42 1294.73 1233.91 z"/>
<path transform="translate(0,0)" fill="rgb(250,190,2)" d="M 628.581 563.475 C 630.358 562.797 630.459 563.022 632.384 563.36 C 632.622 568.229 614.966 594.18 611.594 600.29 C 577.305 662.421 542.378 676.879 480.418 702.999 L 477.938 703.472 L 476.729 702.028 C 476.399 696.735 478.894 691.491 479.991 686.26 C 495.665 611.544 553.902 568.807 628.581 563.475 z"/>
<path transform="translate(0,0)" fill="rgb(250,8,22)" d="M 1467.88 563.036 C 1491.21 561.633 1537.45 577.057 1557.34 590.193 C 1603.4 620.602 1615.09 654.947 1626.85 703.896 C 1529.84 669.725 1520.79 647.91 1467.88 563.036 z"/>
<path transform="translate(0,0)" fill="rgb(250,8,22)" d="M 1857.85 873.755 C 1867.88 881.247 1870.54 943.357 1868.99 956.95 C 1863.64 1003.85 1838.64 1031.1 1803.79 1059.02 C 1800.46 1061.45 1801.34 1061.65 1798.27 1061.31 C 1795.22 1050.22 1793.75 995.913 1794.34 982.946 C 1796.18 942.17 1827.61 899.73 1857.85 873.755 z"/>
<path transform="translate(0,0)" fill="rgb(250,190,2)" d="M 328.14 724.542 C 334.881 731.367 353.501 785.232 355.789 797.523 C 363.984 833.098 352.917 865.615 338.86 897.843 C 336.644 902.922 330.673 922.345 326.035 923.04 L 324.257 921.393 C 277.638 863.789 281.947 801.292 318.137 740.175 C 321.371 734.713 324.233 729.609 328.14 724.542 z"/>
<path transform="translate(0,0)" fill="rgb(250,190,2)" d="M 243.141 873.157 C 246.858 874.396 255.815 885.002 258.823 888.241 C 276.633 907.421 293.728 928.835 302.012 954.097 C 310.537 980.098 308.194 1009.79 305.726 1036.61 C 305.262 1041.65 305.081 1055.39 302.953 1059.4 L 300.575 1060.11 C 279.256 1048.06 256.395 1022.01 245.326 1000.46 C 226.317 963.44 230.991 911.95 243.141 873.157 z"/>
<path transform="translate(0,0)" fill="rgb(250,8,22)" d="M 1772.81 724.451 L 1774.31 725.236 C 1817.34 792.17 1829.9 851.403 1780.44 919.772 C 1778.53 921.866 1778.22 922.09 1775.93 923.798 C 1775.38 923.545 1774.84 923.292 1774.29 923.04 C 1769.48 909.284 1758.39 883.374 1753.6 870.96 C 1731.6 813.958 1750.61 774.893 1772.81 724.451 z"/>
<path transform="translate(0,0)" fill="rgb(250,8,22)" d="M 1886.82 1041.03 L 1887.87 1042.49 C 1890.78 1063.8 1882.27 1106.19 1873.24 1126.06 C 1854.04 1168.34 1823.65 1188.33 1782.22 1203.86 C 1780.25 1198.22 1793.61 1139.25 1796.29 1129.98 C 1809.18 1085.48 1847.87 1060.89 1886.82 1041.03 z"/>
<path transform="translate(0,0)" fill="rgb(250,8,22)" d="M 1784.02 1353.43 C 1794.51 1352.62 1807.83 1353.32 1818.9 1353.07 C 1784.33 1411.58 1749.41 1444.16 1677.5 1444.02 C 1668.72 1443.43 1651.43 1440.49 1642.62 1438.7 C 1644.39 1436.47 1646.21 1434.29 1648.1 1432.17 C 1692 1383.04 1713.93 1357.35 1784.02 1353.43 z"/>
<path transform="translate(0,0)" fill="rgb(250,190,2)" d="M 214.172 1041.15 C 222.837 1042.79 247.484 1058.28 255.33 1063.96 C 308.826 1102.69 309.532 1142.29 318.046 1201.89 C 311.784 1201.91 305.501 1197.65 300.012 1195.21 C 260.002 1177.49 231.304 1146.43 221.264 1103.19 C 216.507 1082.71 213.059 1062.65 214.172 1041.15 z"/>
<path transform="translate(0,0)" fill="rgb(250,8,22)" d="M 1873.51 1206.05 L 1876.02 1206.12 L 1876.58 1207.66 C 1873.32 1214.09 1871.2 1222.77 1868.52 1229.76 C 1860.44 1250.85 1849.93 1271.45 1834.36 1288.01 C 1807.73 1316.34 1773.19 1325.17 1735.75 1326.14 C 1732.95 1325.73 1734.08 1326.32 1732.14 1324.51 C 1732.99 1317.15 1748.35 1289 1752.9 1281.06 C 1783.14 1228.29 1821.22 1220.32 1873.51 1206.05 z"/>
<path transform="translate(0,0)" fill="rgb(250,190,2)" d="M 284.384 1353.15 C 305.003 1351.59 315.062 1351.62 335.474 1354.42 L 345.361 1355.31 C 388.644 1366.64 402.753 1380.21 431.432 1414.96 C 437.269 1422.04 446.795 1431.98 451.648 1438.48 C 433.894 1442.2 421.535 1444.63 403.033 1443.27 C 387.323 1442.05 379.806 1439.1 364.806 1434.47 C 330.517 1420.63 299.434 1386.68 284.384 1353.15 z"/>
<path transform="translate(0,0)" fill="rgb(250,190,2)" d="M 458.538 602.704 C 458.925 602.968 460.33 603.787 460.428 604.303 C 463.277 619.331 462.372 654.537 460.793 668.488 C 459.777 676.815 458.162 685.059 455.96 693.154 C 447.473 724.873 430.082 740.476 410.449 765.312 C 407.117 769.527 400.188 780.669 396.519 782.781 C 393.514 781.911 394.778 782.776 392.999 779.572 C 384.651 761.855 380.806 732.042 383.454 712.928 C 390.216 664.139 421.911 631.602 458.538 602.704 z"/>
<path transform="translate(0,0)" fill="rgb(250,190,2)" d="M 226.688 1205.66 C 265.169 1216.76 295.781 1220.07 326.525 1251.77 C 340.663 1266.35 348.35 1282.88 356.545 1301.01 C 359.865 1308.35 367.312 1317.69 367.212 1325.99 C 290.136 1326.62 241.666 1279.08 226.688 1205.66 z"/>
<path transform="translate(0,0)" fill="rgb(250,8,22)" d="M 1641.85 601.55 C 1644.87 603.262 1650.36 608.263 1653.42 610.781 C 1710.47 657.654 1731.81 705.898 1710.1 779.192 L 1708.48 783.544 L 1706.85 783.938 C 1702.06 778.854 1698.03 771.529 1693.19 765.931 C 1683.45 754.663 1674.32 743.093 1665.51 731.1 C 1636.87 692.088 1638.99 647.293 1641.85 601.55 z"/>
<path transform="translate(0,0)" fill="rgb(250,190,2)" d="M 422.66 967.097 L 424.456 967.081 L 425.359 968.439 C 421.508 1029.27 409.591 1084.49 360.146 1124.1 C 355.208 1128.06 350.366 1133.77 344.471 1136.16 C 337.551 1110.85 338.025 1066.07 347.158 1041.54 C 361.448 1003.18 387.586 983.57 422.66 967.097 z"/>
<path transform="translate(0,0)" fill="rgb(250,190,2)" d="M 462.237 837.798 C 471.025 836.101 482.218 834.236 490.702 832.095 C 468.623 881.197 449.216 924.156 398.007 948.277 C 383.011 955.34 367.145 961.316 351.762 967.551 C 359.689 928.797 376.144 883 410.841 861.066 C 418.915 855.963 426.701 851.921 435.233 847.665 C 444.276 844.769 453.343 841.172 462.237 837.798 z"/>
<path transform="translate(0,0)" fill="rgb(250,190,2)" d="M 567.017 708.53 L 568.234 709.986 C 567.7 715.515 540.404 756.341 535.385 762.902 C 504.095 803.803 462.661 816.128 413.335 821.566 L 412.304 820.411 C 411.415 812.096 437.335 775.377 443.774 767.251 C 476.616 725.803 517.439 714.731 567.017 708.53 z"/>
<path transform="translate(0,0)" fill="rgb(250,8,22)" d="M 1612.2 832.977 C 1618.76 833.203 1626.55 835.28 1632.78 836.607 C 1691.81 849.184 1730.53 887.45 1744.79 946.112 C 1746.22 951.974 1749.56 959.81 1749.56 966.015 C 1731.85 961.378 1705.85 949.719 1690.14 940.211 C 1657.3 920.339 1638 888.864 1622.1 854.98 C 1619.89 850.272 1613.19 837.135 1612.2 832.977 z"/>
<path transform="translate(0,0)" fill="rgb(250,190,2)" d="M 424.676 1108.75 L 426.534 1110.61 C 432.495 1155.63 440.598 1199.57 419.918 1241.67 C 416.372 1248.89 398.065 1285.56 392.675 1287.6 C 389.357 1285.19 387.927 1281.6 385.921 1277.89 C 353.379 1216.34 365.435 1148.41 424.676 1108.75 z"/>
<path transform="translate(0,0)" fill="rgb(250,8,22)" d="M 1676.22 964.879 C 1721.78 989.941 1751.66 1010.75 1760.27 1065.98 C 1760.78 1072.2 1761.48 1078.96 1761.54 1085.16 C 1761.31 1100.41 1759.28 1123.06 1756.91 1138.01 C 1748.74 1130.12 1739.52 1122.81 1731.82 1114.96 C 1701.52 1084.05 1688.82 1056.26 1683.13 1013.41 C 1681.44 1000.71 1679.06 978.067 1676.52 966.226 L 1676.22 964.879 z"/>
<path transform="translate(0,0)" fill="rgb(250,8,22)" d="M 1534.13 709.108 C 1562.67 710.85 1581.4 715.26 1607.42 726.963 C 1641.91 742.477 1660.1 766.468 1678.35 798.195 C 1681.73 804.072 1689.04 815.339 1691.23 821.465 C 1674.22 820.374 1651.43 815.564 1635.22 810.509 C 1584.14 794.582 1557.28 754.455 1534.13 709.108 z"/>
<path transform="translate(0,0)" fill="rgb(250,8,22)" d="M 1677.11 1107.45 C 1692.24 1115.4 1719.42 1151.21 1725.4 1167.96 C 1740.64 1210.62 1728.88 1238.61 1712.47 1276.5 C 1710.87 1280.32 1709.59 1284.07 1707.03 1287.27 C 1701.29 1284.69 1692.94 1265.24 1689.18 1259.02 C 1658.25 1207.87 1666.72 1163.3 1677.11 1107.45 z"/>
<path transform="translate(0,0)" fill="rgb(250,8,22)" d="M 1641.38 1242.33 C 1641.64 1242.48 1642.81 1243.12 1642.95 1243.32 C 1655.64 1262.6 1665.56 1290.28 1665.53 1312.79 C 1665.48 1351.12 1644.96 1375.31 1619.97 1400.66 L 1610.62 1409.46 C 1598.72 1377.1 1595.65 1336.67 1607.79 1304.12 C 1615.99 1282.14 1629.58 1262.46 1641.38 1242.33 z"/>
<path transform="translate(0,0)" fill="rgb(250,190,2)" d="M 456.817 1243.33 L 459.526 1244.44 C 482.293 1277.58 500.277 1327.5 489.64 1366.86 C 487.7 1374.04 481.218 1402.04 477.299 1405.93 C 473.995 1405.38 474.696 1405.03 471.825 1401.72 C 468.453 1396.68 461.223 1389.78 457.116 1384.88 C 417.026 1337.07 425.072 1291.5 456.817 1243.33 z"/>
<path transform="translate(0,0)" fill="rgb(252,252,252)" d="M 1403.49 929.256 C 1420.81 927.939 1440.39 932.356 1452.48 945.413 C 1456.39 949.638 1462.63 953.575 1463.89 959.619 L 1463.04 960.635 C 1392.41 941.839 1398.91 1008.33 1320.94 1005.12 C 1286.27 997.789 1280.92 992.339 1258 965.778 C 1336.81 994.914 1338.7 940.507 1403.49 929.256 z"/>
<path transform="translate(0,0)" fill="rgb(252,252,252)" d="M 821.546 944.644 C 843.188 943.832 861.461 960.57 862.545 982.2 C 863.629 1003.83 847.121 1022.31 825.506 1023.67 C 811.281 1024.56 797.676 1017.73 789.89 1005.79 C 782.105 993.852 781.343 978.649 787.896 965.991 C 794.448 953.334 807.303 945.179 821.546 944.644 z"/>
<path transform="translate(0,0)" fill="rgb(252,252,252)" d="M 1487.54 956.239 C 1508.93 951.715 1529.93 965.439 1534.38 986.853 C 1538.82 1008.27 1525.02 1029.22 1503.59 1033.58 C 1482.27 1037.93 1461.46 1024.21 1457.03 1002.91 C 1452.61 981.608 1466.25 960.739 1487.54 956.239 z"/>
<path transform="translate(0,0)" fill="rgb(159,156,161)" fill-opacity="0.0156863" d="M 1478.13 1105.67 C 1468.39 1122.56 1472.32 1123.22 1484.69 1136.41 C 1481.32 1137.37 1478.54 1138.67 1475.34 1137.69 L 1475.9 1134.55 C 1471.81 1129.73 1470.31 1129.54 1466.95 1123.73 C 1460.88 1124.38 1451.6 1143.17 1443.06 1143.8 C 1443.1 1143.8 1434.86 1150.04 1432.34 1151.11 C 1430.94 1148.87 1431.36 1150.19 1432.16 1146.73 C 1448.66 1132.56 1462.1 1120.32 1478.13 1105.67 z"/>
<path transform="translate(0,0)" fill="rgb(180,138,14)" fill-opacity="0.980392" d="M 451.718 729.274 C 455.456 724.187 463.785 714.304 469 711.019 L 470.884 710.966 C 470.171 716.172 459.621 727.821 455.741 733.121 C 454.246 730.045 455.076 731.096 451.718 729.274 z"/>
<path transform="translate(0,0)" fill="rgb(178,10,8)" fill-opacity="0.980392" d="M 1626.32 704.538 C 1634.56 711.132 1639.86 716.532 1646.5 724.806 L 1643.48 728.18 C 1638.71 722.703 1629.76 710.724 1626.32 704.538 z"/>
<path transform="translate(0,0)" fill="rgb(223,223,224)" fill-opacity="0.0313725" d="M 786.807 1105.05 C 790.276 1101.58 793.7 1098.01 797.446 1094.85 C 795.31 1098.87 792.199 1105.34 789.315 1108.53 L 786.807 1105.05 z"/>
</svg>